<svg xmlns="http://www.w3.org/2000/svg" xmlns:xlink="http://www.w3.org/1999/xlink" width="500" zoomAndPan="magnify" viewBox="0 0 375 374.999991" height="500" preserveAspectRatio="xMidYMid meet" version="1.0"><path fill="#000000" d="M 369.832031 187.5 C 369.832031 190.484375 369.761719 193.464844 369.613281 196.445312 C 369.46875 199.425781 369.246094 202.402344 368.957031 205.371094 C 368.664062 208.339844 368.296875 211.300781 367.859375 214.253906 C 367.421875 217.207031 366.910156 220.144531 366.328125 223.070312 C 365.746094 226 365.09375 228.910156 364.367188 231.804688 C 363.644531 234.699219 362.847656 237.574219 361.980469 240.429688 C 361.117188 243.285156 360.179688 246.117188 359.175781 248.925781 C 358.167969 251.734375 357.097656 254.519531 355.953125 257.277344 C 354.8125 260.03125 353.601562 262.761719 352.328125 265.457031 C 351.050781 268.15625 349.710938 270.820312 348.304688 273.453125 C 346.898438 276.082031 345.425781 278.679688 343.890625 281.238281 C 342.359375 283.796875 340.761719 286.316406 339.105469 288.800781 C 337.445312 291.28125 335.730469 293.71875 333.953125 296.117188 C 332.175781 298.511719 330.339844 300.863281 328.445312 303.171875 C 326.550781 305.476562 324.605469 307.738281 322.601562 309.949219 C 320.597656 312.160156 318.539062 314.320312 316.429688 316.429688 C 314.320312 318.539062 312.160156 320.597656 309.949219 322.601562 C 307.738281 324.605469 305.476562 326.550781 303.171875 328.445312 C 300.863281 330.339844 298.511719 332.175781 296.117188 333.953125 C 293.71875 335.730469 291.28125 337.445312 288.800781 339.105469 C 286.316406 340.761719 283.796875 342.359375 281.238281 343.890625 C 278.679688 345.425781 276.082031 346.898438 273.453125 348.304688 C 270.820312 349.710938 268.15625 351.050781 265.457031 352.328125 C 262.761719 353.601562 260.03125 354.8125 257.277344 355.953125 C 254.519531 357.097656 251.734375 358.167969 248.925781 359.175781 C 246.117188 360.179688 243.285156 361.117188 240.429688 361.980469 C 237.574219 362.847656 234.699219 363.644531 231.804688 364.367188 C 228.910156 365.09375 226 365.746094 223.070312 366.328125 C 220.144531 366.910156 217.207031 367.421875 214.253906 367.859375 C 211.300781 368.296875 208.339844 368.664062 205.371094 368.957031 C 202.402344 369.246094 199.425781 369.46875 196.445312 369.613281 C 193.464844 369.761719 190.484375 369.832031 187.5 369.832031 C 184.515625 369.832031 181.535156 369.761719 178.554688 369.613281 C 175.574219 369.46875 172.597656 369.246094 169.628906 368.957031 C 166.660156 368.664062 163.699219 368.296875 160.746094 367.859375 C 157.792969 367.421875 154.855469 366.910156 151.929688 366.328125 C 149 365.746094 146.089844 365.09375 143.195312 364.367188 C 140.300781 363.644531 137.425781 362.847656 134.570312 361.980469 C 131.714844 361.117188 128.882812 360.179688 126.074219 359.175781 C 123.265625 358.167969 120.480469 357.097656 117.722656 355.953125 C 114.96875 354.8125 112.238281 353.601562 109.542969 352.328125 C 106.84375 351.050781 104.179688 349.710938 101.546875 348.304688 C 98.917969 346.898438 96.320312 345.425781 93.761719 343.890625 C 91.203125 342.359375 88.683594 340.761719 86.199219 339.105469 C 83.71875 337.445312 81.28125 335.730469 78.882812 333.953125 C 76.488281 332.175781 74.136719 330.339844 71.828125 328.445312 C 69.523438 326.550781 67.261719 324.605469 65.050781 322.601562 C 62.839844 320.597656 60.679688 318.539062 58.570312 316.429688 C 56.460938 314.320312 54.402344 312.160156 52.398438 309.949219 C 50.394531 307.738281 48.449219 305.476562 46.554688 303.171875 C 44.660156 300.863281 42.824219 298.511719 41.046875 296.117188 C 39.269531 293.71875 37.554688 291.28125 35.894531 288.800781 C 34.238281 286.316406 32.640625 283.796875 31.109375 281.238281 C 29.574219 278.679688 28.101562 276.082031 26.695312 273.453125 C 25.289062 270.820312 23.949219 268.15625 22.671875 265.457031 C 21.398438 262.761719 20.1875 260.03125 19.046875 257.277344 C 17.902344 254.519531 16.832031 251.734375 15.824219 248.925781 C 14.820312 246.117188 13.882812 243.285156 13.019531 240.429688 C 12.152344 237.574219 11.355469 234.699219 10.632812 231.804688 C 9.90625 228.910156 9.253906 226 8.671875 223.070312 C 8.089844 220.144531 7.578125 217.207031 7.140625 214.253906 C 6.703125 211.300781 6.335938 208.339844 6.042969 205.371094 C 5.753906 202.402344 5.53125 199.425781 5.386719 196.445312 C 5.238281 193.464844 5.167969 190.484375 5.167969 187.5 C 5.167969 184.515625 5.238281 181.535156 5.386719 178.554688 C 5.53125 175.574219 5.753906 172.597656 6.042969 169.628906 C 6.335938 166.660156 6.703125 163.699219 7.140625 160.746094 C 7.578125 157.792969 8.089844 154.855469 8.671875 151.929688 C 9.253906 149 9.90625 146.089844 10.632812 143.195312 C 11.355469 140.300781 12.152344 137.425781 13.019531 134.570312 C 13.882812 131.714844 14.820312 128.882812 15.824219 126.074219 C 16.832031 123.265625 17.902344 120.480469 19.046875 117.722656 C 20.1875 114.96875 21.398438 112.238281 22.671875 109.542969 C 23.949219 106.84375 25.289062 104.179688 26.695312 101.546875 C 28.101562 98.917969 29.574219 96.320312 31.109375 93.761719 C 32.640625 91.203125 34.238281 88.683594 35.894531 86.199219 C 37.554688 83.71875 39.269531 81.28125 41.046875 78.882812 C 42.824219 76.488281 44.660156 74.136719 46.554688 71.828125 C 48.449219 69.523438 50.394531 67.261719 52.398438 65.050781 C 54.402344 62.839844 56.460938 60.679688 58.570312 58.570312 C 60.679688 56.460938 62.839844 54.402344 65.050781 52.398438 C 67.261719 50.394531 69.523438 48.449219 71.828125 46.554688 C 74.136719 44.660156 76.488281 42.824219 78.882812 41.046875 C 81.28125 39.269531 83.71875 37.554688 86.199219 35.894531 C 88.683594 34.238281 91.203125 32.640625 93.761719 31.109375 C 96.320312 29.574219 98.917969 28.101562 101.546875 26.695312 C 104.179688 25.289062 106.84375 23.949219 109.542969 22.671875 C 112.238281 21.398438 114.96875 20.1875 117.722656 19.046875 C 120.480469 17.902344 123.265625 16.832031 126.074219 15.824219 C 128.882812 14.820312 131.714844 13.882812 134.570312 13.019531 C 137.425781 12.152344 140.300781 11.355469 143.195312 10.632812 C 146.089844 9.90625 149 9.253906 151.929688 8.671875 C 154.855469 8.089844 157.792969 7.578125 160.746094 7.140625 C 163.699219 6.703125 166.660156 6.335938 169.628906 6.042969 C 172.597656 5.753906 175.574219 5.53125 178.554688 5.386719 C 181.535156 5.238281 184.515625 5.167969 187.5 5.167969 C 190.484375 5.167969 193.464844 5.238281 196.445312 5.386719 C 199.425781 5.53125 202.402344 5.753906 205.371094 6.042969 C 208.339844 6.335938 211.300781 6.703125 214.253906 7.140625 C 217.207031 7.578125 220.144531 8.089844 223.070312 8.671875 C 226 9.253906 228.910156 9.90625 231.804688 10.632812 C 234.699219 11.355469 237.574219 12.152344 240.429688 13.019531 C 243.285156 13.882812 246.117188 14.820312 248.925781 15.824219 C 251.734375 16.832031 254.519531 17.902344 257.277344 19.046875 C 260.03125 20.1875 262.761719 21.398438 265.457031 22.671875 C 268.15625 23.949219 270.820312 25.289062 273.453125 26.695312 C 276.082031 28.101562 278.679688 29.574219 281.238281 31.109375 C 283.796875 32.640625 286.316406 34.238281 288.800781 35.894531 C 291.28125 37.554688 293.71875 39.269531 296.117188 41.046875 C 298.511719 42.824219 300.863281 44.660156 303.171875 46.554688 C 305.476562 48.449219 307.738281 50.394531 309.949219 52.398438 C 312.160156 54.402344 314.320312 56.460938 316.429688 58.570312 C 318.539062 60.679688 320.597656 62.839844 322.601562 65.050781 C 324.605469 67.261719 326.550781 69.523438 328.445312 71.828125 C 330.339844 74.136719 332.175781 76.488281 333.953125 78.882812 C 335.730469 81.28125 337.445312 83.71875 339.105469 86.199219 C 340.761719 88.683594 342.359375 91.203125 343.890625 93.761719 C 345.425781 96.320312 346.898438 98.917969 348.304688 101.546875 C 349.710938 104.179688 351.050781 106.84375 352.328125 109.542969 C 353.601562 112.238281 354.8125 114.96875 355.953125 117.722656 C 357.097656 120.480469 358.167969 123.265625 359.175781 126.074219 C 360.179688 128.882812 361.117188 131.714844 361.980469 134.570312 C 362.847656 137.425781 363.644531 140.300781 364.367188 143.195312 C 365.09375 146.089844 365.746094 149 366.328125 151.929688 C 366.910156 154.855469 367.421875 157.792969 367.859375 160.746094 C 368.296875 163.699219 368.664062 166.660156 368.957031 169.628906 C 369.246094 172.597656 369.46875 175.574219 369.613281 178.554688 C 369.761719 181.535156 369.832031 184.515625 369.832031 187.5 Z M 369.832031 187.5 " fill-opacity="1" fill-rule="nonzero"/><path fill="#ffffff" d="M 271.277344 265.640625 L 240.929688 265.640625 L 221.226562 192.335938 L 178.855469 265.648438 L 144.984375 265.648438 L 210.46875 152.171875 L 199.933594 112.761719 L 111.632812 265.675781 L 77.734375 265.675781 L 189.640625 71.832031 L 219.308594 71.832031 L 232.300781 119.996094 L 262.921875 119.996094 L 242.011719 156.339844 Z M 271.277344 265.640625 " fill-opacity="1" fill-rule="nonzero"/></svg>