<svg xmlns="http://www.w3.org/2000/svg" xmlns:xlink="http://www.w3.org/1999/xlink" width="1024" zoomAndPan="magnify" viewBox="0 0 768 374.999991" height="500" preserveAspectRatio="xMidYMid meet" version="1.0"><path fill="#000000" d="M -2.890625 279.554688 C 9.15625 257.210938 21.234375 236.542969 33.347656 217.542969 C 33.597656 217.148438 33.886719 216.785156 34.207031 216.445312 C 34.53125 216.109375 34.886719 215.804688 35.269531 215.535156 C 35.652344 215.269531 36.058594 215.039062 36.488281 214.851562 C 36.914062 214.664062 37.355469 214.519531 37.8125 214.417969 C 38.269531 214.316406 38.734375 214.261719 39.199219 214.25 C 39.667969 214.242188 40.132812 214.277344 40.59375 214.359375 C 41.054688 214.4375 41.503906 214.5625 41.9375 214.734375 C 42.375 214.902344 42.789062 215.113281 43.183594 215.367188 C 43.578125 215.617188 43.945312 215.90625 44.28125 216.226562 C 44.621094 216.550781 44.921875 216.90625 45.191406 217.289062 C 45.460938 217.671875 45.6875 218.078125 45.875 218.507812 C 46.066406 218.933594 46.210938 219.375 46.3125 219.832031 C 46.410156 220.289062 46.46875 220.753906 46.476562 221.21875 C 46.488281 221.6875 46.453125 222.152344 46.371094 222.613281 C 46.289062 223.074219 46.164062 223.523438 45.992188 223.957031 C 45.824219 224.394531 45.613281 224.808594 45.363281 225.203125 C 33.4375 243.910156 21.535156 264.28125 9.652344 286.316406 C 9.429688 286.726562 9.167969 287.113281 8.871094 287.476562 C 8.574219 287.835938 8.242188 288.164062 7.878906 288.460938 C 7.515625 288.753906 7.128906 289.011719 6.714844 289.230469 C 6.300781 289.449219 5.871094 289.625 5.421875 289.761719 C 4.976562 289.894531 4.519531 289.984375 4.050781 290.027344 C 3.585938 290.070312 3.121094 290.070312 2.65625 290.023438 C 2.191406 289.976562 1.734375 289.882812 1.285156 289.746094 C 0.839844 289.609375 0.410156 289.429688 0 289.207031 C -0.414062 288.984375 -0.800781 288.722656 -1.160156 288.425781 C -1.519531 288.128906 -1.847656 287.796875 -2.144531 287.433594 C -2.441406 287.070312 -2.695312 286.683594 -2.914062 286.269531 C -3.136719 285.855469 -3.3125 285.425781 -3.445312 284.976562 C -3.578125 284.53125 -3.667969 284.074219 -3.714844 283.605469 C -3.757812 283.140625 -3.753906 282.675781 -3.707031 282.210938 C -3.660156 281.746094 -3.566406 281.289062 -3.429688 280.839844 C -3.292969 280.394531 -3.113281 279.964844 -2.890625 279.554688 Z M 49.273438 193.550781 C 64.070312 172.171875 78.925781 153.261719 93.832031 136.828125 C 94.144531 136.480469 94.492188 136.167969 94.867188 135.890625 C 95.242188 135.613281 95.640625 135.371094 96.066406 135.171875 C 96.488281 134.972656 96.925781 134.816406 97.378906 134.703125 C 97.835938 134.589844 98.296875 134.519531 98.761719 134.5 C 99.230469 134.476562 99.695312 134.5 100.15625 134.566406 C 100.621094 134.636719 101.070312 134.75 101.511719 134.90625 C 101.953125 135.066406 102.375 135.265625 102.773438 135.503906 C 103.175781 135.746094 103.550781 136.023438 103.894531 136.335938 C 104.242188 136.652344 104.554688 136.996094 104.832031 137.371094 C 105.113281 137.75 105.351562 138.148438 105.550781 138.570312 C 105.75 138.992188 105.90625 139.433594 106.019531 139.886719 C 106.132812 140.339844 106.203125 140.800781 106.226562 141.269531 C 106.25 141.734375 106.226562 142.199219 106.15625 142.664062 C 106.085938 143.125 105.972656 143.578125 105.816406 144.019531 C 105.660156 144.457031 105.460938 144.878906 105.21875 145.28125 C 104.976562 145.679688 104.699219 146.054688 104.386719 146.402344 C 89.898438 162.375 75.433594 180.792969 60.988281 201.660156 C 60.722656 202.042969 60.421875 202.398438 60.085938 202.722656 C 59.75 203.050781 59.382812 203.339844 58.992188 203.59375 C 58.597656 203.847656 58.183594 204.058594 57.75 204.230469 C 57.3125 204.402344 56.867188 204.53125 56.40625 204.613281 C 55.945312 204.699219 55.480469 204.734375 55.015625 204.726562 C 54.546875 204.71875 54.082031 204.667969 53.625 204.570312 C 53.167969 204.46875 52.726562 204.328125 52.296875 204.140625 C 51.867188 203.957031 51.460938 203.730469 51.074219 203.460938 C 50.691406 203.195312 50.335938 202.894531 50.011719 202.558594 C 49.683594 202.222656 49.394531 201.859375 49.140625 201.464844 C 48.890625 201.070312 48.675781 200.65625 48.503906 200.222656 C 48.332031 199.789062 48.203125 199.339844 48.121094 198.878906 C 48.035156 198.417969 48 197.953125 48.007812 197.488281 C 48.015625 197.019531 48.066406 196.558594 48.167969 196.101562 C 48.265625 195.640625 48.40625 195.199219 48.59375 194.769531 C 48.78125 194.339844 49.007812 193.933594 49.273438 193.550781 Z M 114.070312 116.0625 C 133.601562 97.515625 153.253906 83.152344 173.023438 72.976562 C 173.441406 72.761719 173.875 72.589844 174.324219 72.460938 C 174.773438 72.332031 175.230469 72.25 175.699219 72.210938 C 176.164062 72.171875 176.628906 72.179688 177.09375 72.230469 C 177.558594 72.285156 178.015625 72.382812 178.460938 72.523438 C 178.90625 72.667969 179.332031 72.851562 179.742188 73.078125 C 180.152344 73.304688 180.535156 73.570312 180.890625 73.875 C 181.246094 74.175781 181.570312 74.511719 181.863281 74.875 C 182.152344 75.242188 182.40625 75.632812 182.621094 76.050781 C 182.835938 76.464844 183.007812 76.898438 183.136719 77.347656 C 183.265625 77.796875 183.347656 78.253906 183.386719 78.722656 C 183.425781 79.1875 183.417969 79.652344 183.363281 80.117188 C 183.3125 80.582031 183.214844 81.039062 183.070312 81.484375 C 182.929688 81.929688 182.742188 82.355469 182.515625 82.765625 C 182.289062 83.175781 182.027344 83.558594 181.722656 83.914062 C 181.421875 84.273438 181.085938 84.597656 180.71875 84.886719 C 180.355469 85.179688 179.964844 85.429688 179.546875 85.644531 C 160.984375 95.203125 142.429688 108.785156 123.882812 126.394531 C 123.546875 126.71875 123.179688 127.003906 122.78125 127.253906 C 122.386719 127.503906 121.96875 127.710938 121.535156 127.878906 C 121.097656 128.046875 120.648438 128.171875 120.1875 128.25 C 119.726562 128.332031 119.261719 128.363281 118.792969 128.351562 C 118.328125 128.339844 117.863281 128.28125 117.410156 128.179688 C 116.953125 128.078125 116.511719 127.929688 116.082031 127.738281 C 115.65625 127.550781 115.25 127.320312 114.867188 127.050781 C 114.484375 126.78125 114.132812 126.476562 113.8125 126.136719 C 113.488281 125.796875 113.203125 125.429688 112.953125 125.035156 C 112.703125 124.636719 112.496094 124.222656 112.328125 123.785156 C 112.160156 123.347656 112.035156 122.898438 111.957031 122.4375 C 111.878906 121.976562 111.84375 121.511719 111.855469 121.046875 C 111.867188 120.578125 111.925781 120.117188 112.027344 119.660156 C 112.132812 119.203125 112.277344 118.761719 112.46875 118.335938 C 112.660156 117.90625 112.886719 117.5 113.160156 117.121094 C 113.429688 116.738281 113.734375 116.386719 114.070312 116.0625 Z M 200.40625 61.578125 C 224.914062 53.777344 249.539062 52.332031 274.273438 57.246094 C 274.734375 57.335938 275.179688 57.472656 275.609375 57.652344 C 276.042969 57.832031 276.453125 58.050781 276.84375 58.308594 C 277.230469 58.570312 277.59375 58.863281 277.921875 59.195312 C 278.253906 59.527344 278.550781 59.886719 278.808594 60.273438 C 279.070312 60.664062 279.289062 61.074219 279.46875 61.507812 C 279.648438 61.9375 279.78125 62.382812 279.875 62.84375 C 279.964844 63.300781 280.011719 63.765625 280.011719 64.234375 C 280.011719 64.699219 279.964844 65.164062 279.875 65.621094 C 279.78125 66.082031 279.648438 66.527344 279.46875 66.960938 C 279.289062 67.390625 279.070312 67.800781 278.8125 68.191406 C 278.550781 68.582031 278.253906 68.941406 277.925781 69.273438 C 277.59375 69.601562 277.234375 69.898438 276.84375 70.15625 C 276.457031 70.417969 276.046875 70.636719 275.613281 70.816406 C 275.183594 70.996094 274.734375 71.132812 274.277344 71.222656 C 273.820312 71.3125 273.355469 71.359375 272.886719 71.359375 C 272.417969 71.359375 271.957031 71.3125 271.496094 71.222656 C 249.164062 66.785156 226.90625 68.097656 204.726562 75.15625 C 204.28125 75.296875 203.824219 75.394531 203.359375 75.449219 C 202.894531 75.5 202.429688 75.507812 201.964844 75.46875 C 201.496094 75.425781 201.039062 75.34375 200.589844 75.214844 C 200.140625 75.082031 199.707031 74.910156 199.292969 74.695312 C 198.878906 74.480469 198.488281 74.226562 198.121094 73.9375 C 197.753906 73.644531 197.421875 73.320312 197.121094 72.960938 C 196.820312 72.605469 196.554688 72.222656 196.328125 71.8125 C 196.101562 71.402344 195.917969 70.972656 195.777344 70.527344 C 195.632812 70.082031 195.539062 69.628906 195.484375 69.164062 C 195.433594 68.699219 195.425781 68.230469 195.464844 67.765625 C 195.503906 67.300781 195.589844 66.84375 195.71875 66.390625 C 195.847656 65.941406 196.023438 65.511719 196.238281 65.09375 C 196.453125 64.679688 196.703125 64.289062 196.996094 63.921875 C 197.289062 63.558594 197.613281 63.222656 197.972656 62.921875 C 198.328125 62.621094 198.710938 62.355469 199.121094 62.128906 C 199.53125 61.902344 199.957031 61.71875 200.40625 61.578125 Z M 302.8125 65.734375 C 323.605469 73.96875 344.40625 86.6875 365.21875 103.894531 C 365.578125 104.195312 365.90625 104.523438 366.199219 104.886719 C 366.496094 105.25 366.753906 105.636719 366.972656 106.050781 C 367.191406 106.464844 367.367188 106.894531 367.503906 107.34375 C 367.636719 107.792969 367.726562 108.25 367.769531 108.714844 C 367.8125 109.179688 367.8125 109.644531 367.765625 110.109375 C 367.71875 110.578125 367.625 111.03125 367.488281 111.480469 C 367.351562 111.925781 367.171875 112.355469 366.949219 112.769531 C 366.726562 113.179688 366.464844 113.566406 366.167969 113.925781 C 365.871094 114.289062 365.539062 114.617188 365.175781 114.910156 C 364.8125 115.207031 364.425781 115.464844 364.011719 115.683594 C 363.597656 115.902344 363.167969 116.078125 362.71875 116.210938 C 362.273438 116.347656 361.816406 116.4375 361.347656 116.480469 C 360.882812 116.523438 360.417969 116.523438 359.953125 116.476562 C 359.488281 116.425781 359.03125 116.335938 358.582031 116.199219 C 358.136719 116.058594 357.707031 115.878906 357.296875 115.660156 C 356.882812 115.4375 356.496094 115.175781 356.136719 114.878906 C 336.484375 98.628906 316.960938 86.664062 297.566406 78.984375 C 297.132812 78.808594 296.71875 78.597656 296.324219 78.34375 C 295.933594 78.089844 295.566406 77.800781 295.230469 77.472656 C 294.894531 77.148438 294.59375 76.792969 294.328125 76.410156 C 294.0625 76.023438 293.835938 75.617188 293.652344 75.1875 C 293.464844 74.757812 293.324219 74.316406 293.226562 73.855469 C 293.125 73.398438 293.074219 72.9375 293.066406 72.46875 C 293.058594 72 293.097656 71.539062 293.179688 71.078125 C 293.265625 70.617188 293.394531 70.167969 293.566406 69.734375 C 293.738281 69.300781 293.953125 68.886719 294.207031 68.492188 C 294.460938 68.101562 294.75 67.734375 295.074219 67.398438 C 295.398438 67.0625 295.753906 66.761719 296.140625 66.496094 C 296.523438 66.230469 296.933594 66.003906 297.363281 65.820312 C 297.789062 65.632812 298.234375 65.492188 298.691406 65.394531 C 299.148438 65.292969 299.613281 65.242188 300.078125 65.234375 C 300.546875 65.226562 301.011719 65.265625 301.472656 65.347656 C 301.929688 65.433594 302.378906 65.5625 302.8125 65.734375 Z M 302.8125 65.734375 " fill-opacity="1" fill-rule="nonzero"/><path fill="#000000" d="M 755.789062 69.566406 C 743.3125 92.542969 730.246094 112.832031 716.585938 130.425781 C 716.300781 130.796875 715.980469 131.132812 715.625 131.441406 C 715.273438 131.746094 714.894531 132.015625 714.488281 132.246094 C 714.082031 132.480469 713.65625 132.667969 713.210938 132.816406 C 712.769531 132.964844 712.3125 133.066406 711.847656 133.125 C 711.386719 133.183594 710.921875 133.199219 710.453125 133.164062 C 709.988281 133.132812 709.527344 133.054688 709.078125 132.929688 C 708.625 132.804688 708.191406 132.640625 707.773438 132.429688 C 707.355469 132.222656 706.960938 131.972656 706.589844 131.6875 C 706.21875 131.398438 705.882812 131.078125 705.574219 130.726562 C 705.269531 130.371094 705 129.992188 704.769531 129.585938 C 704.535156 129.179688 704.347656 128.753906 704.199219 128.308594 C 704.050781 127.867188 703.949219 127.414062 703.890625 126.949219 C 703.832031 126.484375 703.820312 126.019531 703.851562 125.550781 C 703.886719 125.085938 703.964844 124.625 704.085938 124.175781 C 704.210938 123.722656 704.378906 123.289062 704.585938 122.871094 C 704.796875 122.453125 705.042969 122.058594 705.332031 121.6875 C 718.511719 104.703125 731.15625 85.0625 743.265625 62.765625 C 743.488281 62.355469 743.75 61.96875 744.046875 61.609375 C 744.347656 61.25 744.679688 60.921875 745.042969 60.628906 C 745.40625 60.332031 745.792969 60.078125 746.207031 59.859375 C 746.621094 59.640625 747.054688 59.464844 747.5 59.332031 C 747.949219 59.199219 748.40625 59.113281 748.875 59.070312 C 749.339844 59.027344 749.804688 59.03125 750.269531 59.078125 C 750.734375 59.128906 751.191406 59.222656 751.636719 59.359375 C 752.085938 59.5 752.515625 59.679688 752.925781 59.902344 C 753.335938 60.125 753.722656 60.386719 754.082031 60.6875 C 754.441406 60.984375 754.769531 61.316406 755.0625 61.679688 C 755.355469 62.042969 755.613281 62.433594 755.832031 62.847656 C 756.050781 63.261719 756.222656 63.691406 756.355469 64.140625 C 756.488281 64.589844 756.578125 65.046875 756.621094 65.511719 C 756.664062 65.980469 756.660156 66.445312 756.613281 66.910156 C 756.5625 67.375 756.46875 67.832031 756.332031 68.277344 C 756.191406 68.722656 756.011719 69.152344 755.789062 69.566406 Z M 697.71875 152.625 C 679.484375 172.109375 660.257812 187.175781 640.039062 197.824219 C 639.625 198.042969 639.195312 198.21875 638.746094 198.351562 C 638.296875 198.484375 637.839844 198.574219 637.375 198.617188 C 636.910156 198.660156 636.441406 198.65625 635.976562 198.609375 C 635.511719 198.558594 635.054688 198.464844 634.609375 198.328125 C 634.164062 198.1875 633.734375 198.007812 633.320312 197.785156 C 632.910156 197.5625 632.523438 197.300781 632.164062 197 C 631.804688 196.703125 631.480469 196.371094 631.183594 196.007812 C 630.890625 195.644531 630.632812 195.257812 630.414062 194.84375 C 630.195312 194.429688 630.019531 193.996094 629.886719 193.546875 C 629.753906 193.101562 629.667969 192.644531 629.625 192.175781 C 629.582031 191.710938 629.585938 191.246094 629.632812 190.78125 C 629.679688 190.316406 629.773438 189.859375 629.914062 189.410156 C 630.050781 188.964844 630.234375 188.535156 630.457031 188.125 C 630.679688 187.714844 630.941406 187.328125 631.238281 186.96875 C 631.539062 186.609375 631.871094 186.28125 632.234375 185.988281 C 632.597656 185.691406 632.984375 185.4375 633.398438 185.21875 C 652.199219 175.316406 670.171875 161.203125 687.3125 142.886719 C 687.632812 142.546875 687.984375 142.238281 688.363281 141.964844 C 688.742188 141.691406 689.144531 141.460938 689.570312 141.265625 C 689.996094 141.074219 690.4375 140.921875 690.894531 140.816406 C 691.351562 140.710938 691.8125 140.648438 692.277344 140.632812 C 692.746094 140.617188 693.210938 140.648438 693.671875 140.726562 C 694.132812 140.800781 694.585938 140.921875 695.023438 141.085938 C 695.460938 141.25 695.878906 141.457031 696.273438 141.703125 C 696.671875 141.949219 697.042969 142.234375 697.382812 142.550781 C 697.726562 142.871094 698.03125 143.222656 698.304688 143.601562 C 698.578125 143.984375 698.8125 144.386719 699.003906 144.8125 C 699.195312 145.238281 699.347656 145.679688 699.453125 146.132812 C 699.558594 146.589844 699.621094 147.050781 699.636719 147.519531 C 699.652344 147.988281 699.621094 148.449219 699.546875 148.914062 C 699.46875 149.375 699.347656 149.824219 699.183594 150.261719 C 699.019531 150.699219 698.8125 151.117188 698.566406 151.515625 C 698.320312 151.914062 698.039062 152.28125 697.71875 152.625 Z M 612.671875 209.347656 C 589.28125 216.820312 564.765625 218.828125 539.125 215.367188 C 538.660156 215.304688 538.207031 215.199219 537.765625 215.046875 C 537.324219 214.894531 536.898438 214.703125 536.496094 214.464844 C 536.089844 214.230469 535.714844 213.960938 535.363281 213.648438 C 535.011719 213.339844 534.695312 213 534.410156 212.628906 C 534.128906 212.253906 533.882812 211.859375 533.679688 211.4375 C 533.472656 211.019531 533.308594 210.582031 533.191406 210.128906 C 533.070312 209.675781 532.996094 209.21875 532.96875 208.75 C 532.9375 208.285156 532.953125 207.820312 533.015625 207.355469 C 533.078125 206.890625 533.1875 206.4375 533.339844 205.996094 C 533.492188 205.554688 533.683594 205.128906 533.917969 204.726562 C 534.15625 204.320312 534.425781 203.945312 534.738281 203.59375 C 535.046875 203.242188 535.386719 202.925781 535.757812 202.640625 C 536.132812 202.359375 536.527344 202.113281 536.949219 201.90625 C 537.367188 201.703125 537.804688 201.539062 538.257812 201.417969 C 538.707031 201.300781 539.167969 201.226562 539.636719 201.195312 C 540.101562 201.167969 540.566406 201.183594 541.03125 201.246094 C 564.550781 204.417969 586.984375 202.59375 608.335938 195.773438 C 608.78125 195.628906 609.234375 195.53125 609.699219 195.480469 C 610.164062 195.425781 610.628906 195.421875 611.097656 195.460938 C 611.5625 195.5 612.019531 195.582031 612.46875 195.710938 C 612.921875 195.839844 613.351562 196.011719 613.769531 196.226562 C 614.183594 196.441406 614.574219 196.695312 614.941406 196.984375 C 615.308594 197.277344 615.640625 197.601562 615.945312 197.957031 C 616.246094 198.316406 616.511719 198.699219 616.738281 199.109375 C 616.964844 199.519531 617.148438 199.945312 617.289062 200.390625 C 617.433594 200.835938 617.53125 201.292969 617.582031 201.757812 C 617.636719 202.222656 617.640625 202.6875 617.601562 203.152344 C 617.566406 203.621094 617.480469 204.078125 617.351562 204.527344 C 617.222656 204.976562 617.050781 205.410156 616.835938 205.824219 C 616.621094 206.242188 616.367188 206.632812 616.078125 206.996094 C 615.785156 207.363281 615.460938 207.699219 615.105469 208 C 614.746094 208.300781 614.363281 208.566406 613.953125 208.792969 C 613.546875 209.019531 613.117188 209.203125 612.671875 209.347656 Z M 510.296875 209.304688 C 488.773438 203.203125 466.53125 193.472656 443.5625 180.117188 C 443.15625 179.882812 442.78125 179.609375 442.429688 179.300781 C 442.078125 178.992188 441.761719 178.648438 441.476562 178.277344 C 441.195312 177.90625 440.949219 177.507812 440.742188 177.089844 C 440.539062 176.667969 440.375 176.234375 440.253906 175.78125 C 440.136719 175.328125 440.0625 174.867188 440.03125 174.402344 C 440.003906 173.933594 440.019531 173.46875 440.082031 173.003906 C 440.144531 172.542969 440.253906 172.089844 440.402344 171.644531 C 440.554688 171.203125 440.75 170.78125 440.984375 170.375 C 441.21875 169.972656 441.492188 169.59375 441.800781 169.242188 C 442.109375 168.890625 442.453125 168.574219 442.824219 168.292969 C 443.195312 168.007812 443.59375 167.761719 444.011719 167.558594 C 444.433594 167.351562 444.867188 167.1875 445.320312 167.070312 C 445.773438 166.949219 446.234375 166.875 446.699219 166.847656 C 447.167969 166.816406 447.632812 166.835938 448.09375 166.898438 C 448.558594 166.960938 449.011719 167.066406 449.453125 167.21875 C 449.898438 167.371094 450.320312 167.5625 450.726562 167.796875 C 472.660156 180.554688 493.8125 189.820312 514.183594 195.59375 C 514.632812 195.722656 515.066406 195.894531 515.484375 196.105469 C 515.902344 196.320312 516.292969 196.570312 516.660156 196.859375 C 517.027344 197.152344 517.363281 197.472656 517.664062 197.828125 C 517.96875 198.1875 518.234375 198.566406 518.460938 198.976562 C 518.691406 199.386719 518.875 199.8125 519.019531 200.257812 C 519.164062 200.703125 519.261719 201.15625 519.316406 201.621094 C 519.371094 202.085938 519.378906 202.550781 519.34375 203.019531 C 519.304688 203.484375 519.222656 203.941406 519.09375 204.394531 C 518.96875 204.84375 518.796875 205.277344 518.585938 205.691406 C 518.371094 206.109375 518.121094 206.5 517.828125 206.867188 C 517.539062 207.234375 517.214844 207.570312 516.859375 207.875 C 516.503906 208.175781 516.121094 208.441406 515.714844 208.671875 C 515.304688 208.898438 514.878906 209.085938 514.433594 209.230469 C 513.988281 209.371094 513.53125 209.472656 513.066406 209.527344 C 512.605469 209.582031 512.136719 209.589844 511.671875 209.550781 C 511.207031 209.515625 510.746094 209.433594 510.296875 209.304688 Z M 418.992188 164.632812 C 404.960938 155.125 390.664062 144.3125 376.097656 132.203125 C 375.738281 131.90625 375.410156 131.574219 375.117188 131.210938 C 374.824219 130.847656 374.566406 130.457031 374.347656 130.042969 C 374.132812 129.628906 373.957031 129.199219 373.824219 128.75 C 373.691406 128.300781 373.601562 127.84375 373.558594 127.378906 C 373.515625 126.910156 373.519531 126.445312 373.566406 125.980469 C 373.617188 125.515625 373.710938 125.058594 373.847656 124.613281 C 373.988281 124.167969 374.167969 123.738281 374.390625 123.324219 C 374.613281 122.914062 374.875 122.53125 375.175781 122.167969 C 375.472656 121.808594 375.804688 121.484375 376.167969 121.1875 C 376.53125 120.894531 376.921875 120.636719 377.335938 120.417969 C 377.75 120.203125 378.179688 120.027344 378.628906 119.894531 C 379.078125 119.761719 379.535156 119.671875 380 119.628906 C 380.46875 119.585938 380.933594 119.589844 381.398438 119.640625 C 381.863281 119.6875 382.320312 119.78125 382.765625 119.921875 C 383.210938 120.058594 383.640625 120.238281 384.054688 120.460938 C 384.464844 120.6875 384.847656 120.945312 385.210938 121.246094 C 399.414062 133.058594 413.339844 143.589844 426.988281 152.839844 C 427.375 153.101562 427.734375 153.398438 428.0625 153.730469 C 428.390625 154.066406 428.683594 154.425781 428.941406 154.816406 C 429.199219 155.207031 429.414062 155.621094 429.589844 156.054688 C 429.769531 156.488281 429.898438 156.933594 429.988281 157.394531 C 430.078125 157.851562 430.117188 158.316406 430.117188 158.785156 C 430.113281 159.25 430.0625 159.714844 429.96875 160.171875 C 429.875 160.628906 429.738281 161.074219 429.554688 161.507812 C 429.375 161.9375 429.152344 162.347656 428.890625 162.734375 C 428.625 163.121094 428.328125 163.480469 427.996094 163.808594 C 427.664062 164.136719 427.300781 164.429688 426.910156 164.6875 C 426.519531 164.945312 426.109375 165.160156 425.675781 165.335938 C 425.242188 165.511719 424.792969 165.644531 424.335938 165.734375 C 423.875 165.820312 423.410156 165.863281 422.945312 165.859375 C 422.476562 165.859375 422.011719 165.808594 421.554688 165.714844 C 421.097656 165.621094 420.652344 165.484375 420.222656 165.300781 C 419.789062 165.117188 419.378906 164.898438 418.992188 164.632812 Z M 418.992188 164.632812 " fill-opacity="1" fill-rule="nonzero"/></svg>